<svg width="147" height="44" viewBox="0 0 147 44" fill="none" xmlns="http://www.w3.org/2000/svg">
<g clip-path="url(#clip0_305_16072)">
<path d="M19.2237 33.5351C18.9078 33.7408 18.5993 33.9289 18.278 33.954C17.6203 34.0055 16.9557 33.9695 16.2549 33.9695C16.2549 31.8816 16.2549 29.8951 16.2549 27.8633C17.2077 27.8633 18.1338 27.8633 19.2253 27.8633C19.2253 29.6983 19.2253 31.571 19.2237 33.5351Z" fill="white"/>
<path d="M29.6126 20.1974C29.843 21.159 29.9797 22.1172 30.1305 23.1744C27.9453 23.1744 25.9604 23.1744 23.9434 23.1744C23.9434 22.2206 23.9434 21.2637 23.9434 20.1941C25.8012 20.1941 27.66 20.1941 29.6126 20.1974Z" fill="white"/>
<path d="M16.211 10.8892C16.211 10.3725 16.211 9.95857 16.211 9.47119C17.2678 9.47119 18.2271 9.47119 19.2552 9.47119C19.2552 11.4941 19.2552 13.4805 19.2552 15.5336C18.2988 15.5336 17.3342 15.5336 16.2109 15.5336C16.2109 14.0473 16.2109 12.5196 16.211 10.8892Z" fill="white"/>
<path d="M10.9696 30.3731C11.7806 28.9751 12.5511 27.6461 13.3354 26.2932C14.1995 26.7901 15.0327 27.2693 15.9508 27.7973C14.96 29.5117 13.9519 31.2562 12.9154 33.0498C12.0387 32.5472 11.2263 32.0815 10.3413 31.5741C10.5578 31.1571 10.7435 30.7995 10.9696 30.3731Z" fill="white"/>
<path d="M22.3407 26.2982C22.8194 25.3929 23.298 24.4876 23.8242 23.4924C25.5737 24.4981 27.2905 25.4849 29.116 26.5343C28.6194 27.3948 28.1429 28.2205 27.6162 29.1331C25.8649 28.1451 24.1719 27.19 22.4065 26.2638C22.3341 26.2927 22.3407 26.2982 22.3407 26.2982Z" fill="white"/>
<path d="M13.2586 17.2132C12.815 16.3268 12.391 15.4299 11.9224 14.5569C11.4442 13.666 10.9221 12.7986 10.3735 11.8411C11.2469 11.3333 12.0543 10.8639 12.9402 10.3489C13.9717 12.1258 14.9719 13.8488 15.9724 15.5722C15.0703 16.0824 14.1983 16.5755 13.2852 17.1403C13.2439 17.212 13.2586 17.2132 13.2586 17.2132Z" fill="white"/>
<path d="M29.0353 16.7855C27.3428 17.8908 25.6399 18.9219 23.9029 19.9738C23.3775 19.066 22.8971 18.2358 22.3674 17.3207C24.0822 16.3307 25.7966 15.3408 27.6275 14.2837C28.1275 15.1524 28.5762 15.9319 29.0353 16.7855Z" fill="white"/>
<path d="M13.245 17.205C12.7272 18.062 12.2082 18.9262 11.6361 19.8789C9.95561 18.9128 8.24339 17.9285 6.40186 16.8698C6.89129 16.0123 7.36469 15.1828 7.8907 14.2612C9.65826 15.263 11.3816 16.2397 13.1818 17.2149C13.2586 17.2133 13.2439 17.2122 13.245 17.205Z" fill="white"/>
<path d="M22.3313 26.2893C22.4194 26.5885 22.4587 26.92 22.6096 27.189C23.4141 28.6232 24.2465 30.0418 25.1177 31.5496C24.2904 32.0297 23.5101 32.4827 22.5828 33.0209C21.5707 31.2815 20.5783 29.5761 19.5449 27.8002C20.4857 27.3212 21.3626 26.8748 22.29 26.3633C22.3406 26.2982 22.334 26.2927 22.3313 26.2893Z" fill="white"/>
<path d="M21.8005 16.9408C21.0484 16.4809 20.3637 16.0644 19.5796 15.5873C20.5516 13.894 21.5351 12.1806 22.5791 10.3618C23.4443 10.8503 24.2512 11.3058 25.202 11.8426C24.3111 13.3957 23.4624 14.9059 22.5746 16.3928C22.4259 16.6418 22.1077 16.7896 21.8005 16.9408Z" fill="white"/>
<path d="M8.9095 28.4987C8.53963 28.7038 8.23341 28.8658 7.87949 29.0529C7.39878 28.2266 6.94177 27.441 6.40186 26.5128C8.13941 25.5078 9.85662 24.5146 11.6179 23.4958C12.1054 24.3401 12.572 25.1481 13.1014 26.0649C11.7488 26.8482 10.361 27.6518 8.9095 28.4987Z" fill="white"/>
<path d="M8.58943 20.1638C9.63646 20.1638 10.5783 20.1638 11.5695 20.1638C11.5695 21.15 11.5695 22.0782 11.5695 23.0858C9.59522 23.0858 7.61725 23.0858 5.57275 23.0858C5.57275 22.1593 5.57275 21.2302 5.57275 20.1638C6.55112 20.1638 7.51771 20.1638 8.58943 20.1638Z" fill="white"/>
<path d="M83.2659 31.939C83.2659 32.3486 83.2659 32.6605 83.2659 33.0004C82.2294 33.0004 81.2827 33.0004 80.2444 33.0004C80.2444 27.2464 80.2444 21.5027 80.2444 15.6872C81.1216 15.6872 82.017 15.6872 82.95 15.6872C83.0557 16.1196 83.1627 16.5577 83.3141 17.1775C84.7122 15.5451 86.4403 15.0277 88.44 15.3991C89.8885 15.6681 91.0494 16.4128 91.9443 17.5712C93.9079 20.1127 93.6448 24.1417 91.3779 26.3647C89.2262 28.4748 86.0764 28.5186 83.2659 26.3156C83.2659 28.2585 83.2659 30.0499 83.2659 31.939ZM86.8775 25.1996C88.8112 24.8314 89.8671 23.7707 90.0047 22.058C90.1492 20.2588 89.286 18.7622 87.7802 18.2747C86.4279 17.837 85.1901 18.061 84.204 19.1239C83.1399 20.271 82.9871 21.657 83.5114 23.0607C84.0433 24.4851 85.1678 25.1924 86.8775 25.1996Z" fill="white"/>
<path d="M136.875 16.0849C138.926 15.0901 140.943 14.9826 142.949 15.924C145.352 17.0517 146.619 19.727 146.027 22.4256C143.072 22.4256 140.094 22.4256 137.047 22.4256C137.09 23.7306 137.678 24.5832 138.749 25.0575C139.847 25.5433 141.116 25.6415 141.88 24.6842C142.607 23.7728 143.407 23.8725 144.295 23.8596C144.752 23.8529 145.209 23.8584 145.67 23.8584C145.392 25.9378 143.282 27.7021 140.808 27.9546C137.796 28.2619 135.171 26.7313 134.222 24.1153C133.132 21.1094 134.175 17.8891 136.875 16.0849ZM138.044 18.6185C137.69 19.1421 137.336 19.6657 136.87 20.353C139.066 20.353 140.963 20.353 142.854 20.353C142.869 20.2278 142.894 20.1565 142.883 20.0915C142.521 18.0147 140.312 17.2772 138.044 18.6185Z" fill="white"/>
<path d="M53.5843 15.3039C56.1276 15.6381 57.667 16.9764 57.8085 19.3333C57.9722 22.0598 57.8466 24.8037 57.8466 27.6092C56.8908 27.6092 55.8934 27.6092 54.781 27.6092C54.781 25.7569 54.7827 23.9369 54.7799 22.1169C54.7792 21.6246 54.7939 21.1299 54.7517 20.6406C54.6023 18.9076 53.8678 18.0815 52.4577 18.0229C50.7763 17.953 49.5496 18.8712 49.3925 20.541C49.2479 22.0767 49.3177 23.6328 49.3002 25.1801C49.2915 25.9531 49.2987 26.7263 49.2987 27.5886C48.2633 27.5886 47.2657 27.5886 46.1892 27.5886C46.1892 23.6602 46.1892 19.7057 46.1892 15.6835C47.086 15.6835 47.9783 15.6835 48.8953 15.6835C48.9721 16.2014 49.0432 16.6812 49.1532 17.4233C50.3127 15.8564 51.7411 15.2065 53.5843 15.3039Z" fill="white"/>
<path d="M102.619 22.7552C102.218 19.7893 103.387 17.2879 105.693 16.0451C107.972 14.8169 110.846 15.1054 112.807 16.7592C114.861 18.4912 115.522 21.7302 114.366 24.3955C113.298 26.8568 110.649 28.3136 107.906 27.9485C105.093 27.5741 103.094 25.6368 102.619 22.7552ZM110.403 24.6485C111.793 23.406 112.158 21.0329 111.177 19.4691C110.571 18.5026 109.682 17.9774 108.53 18.0691C107.344 18.1635 106.442 18.7978 106.087 19.9271C105.853 20.672 105.779 21.5144 105.841 22.2966C106.036 24.7594 108.054 25.8444 110.403 24.6485Z" fill="white"/>
<path d="M74.4482 15.5832C78.7296 17.0784 79.3792 21.6438 78.0198 24.5784C76.5427 27.7671 72.3784 28.9689 69.2693 27.1575C66.6356 25.623 65.5478 22.2926 66.6765 19.2195C67.6991 16.4354 70.642 14.8219 73.6457 15.3997C73.8875 15.4462 74.1277 15.5011 74.4482 15.5832ZM75.3994 20.9943C75.2484 19.7202 74.6939 18.7264 73.4395 18.2465C71.9709 17.6847 70.3288 18.4612 69.7639 19.9674C68.9625 22.1041 69.7675 24.4861 71.5561 25.028C72.1168 25.1979 72.8168 25.1848 73.3806 25.015C74.8627 24.5688 75.4648 23.3323 75.3994 20.9943Z" fill="white"/>
<path d="M120.127 27.2226C119.843 27.4365 119.567 27.6415 119.278 27.6612C118.548 27.7111 117.812 27.6778 116.978 27.6778C116.978 24.5227 116.978 21.4455 116.978 18.3142C116.397 18.2852 115.914 18.2612 115.378 18.2345C115.378 17.3941 115.378 16.5676 115.378 15.6586C115.863 15.6308 116.337 15.6037 116.876 15.5728C117.072 13.9268 116.67 12.0897 118.284 10.9265C119.515 10.0402 120.933 10.1487 122.398 10.2354C122.398 11.0944 122.398 11.9188 122.398 12.7391C120.018 13.2513 119.919 13.3787 120.247 15.6156C120.64 15.6156 121.051 15.6156 121.463 15.6156C121.844 15.6156 122.226 15.6156 122.67 15.6156C122.67 16.522 122.67 17.3424 122.67 18.2425C121.857 18.2425 121.059 18.2425 120.129 18.2425C120.129 21.2557 120.129 24.1925 120.127 27.2226Z" fill="white"/>
<path d="M60.1768 14.4741C60.3444 10.9696 61.8168 9.85837 65.6478 10.2683C65.6478 11.1009 65.6478 11.9363 65.6478 12.7662C63.25 13.1738 63.204 13.2314 63.4332 15.5879C64.2172 15.5879 65.012 15.5879 65.8671 15.5879C65.8671 16.492 65.8671 17.3227 65.8671 18.2207C65.0881 18.2207 64.2939 18.2207 63.3784 18.2207C63.3784 21.3866 63.3784 24.4901 63.3784 27.6248C62.2516 27.6248 61.2469 27.6248 60.1615 27.6248C60.1615 24.4918 60.1615 21.4111 60.1615 18.2707C59.6003 18.2707 59.119 18.2707 58.5791 18.2707C58.5791 17.3859 58.5791 16.5614 58.5791 15.6682C59.0775 15.6395 59.561 15.6117 60.1768 15.5762C60.1768 15.2438 60.1768 14.9094 60.1768 14.4741Z" fill="white"/>
<path d="M129.138 26.8605C129.138 21.2781 129.138 15.7938 129.138 10.2517C130.191 10.2517 131.196 10.2517 132.26 10.2517C132.26 16.0186 132.26 21.7999 132.26 27.6775C131.4 27.6775 130.56 27.7266 129.734 27.6446C129.515 27.6229 129.336 27.1983 129.138 26.8605Z" fill="white"/>
<path d="M97.9279 27.0344C97.742 27.3118 97.5667 27.6385 97.3692 27.6525C96.5362 27.7116 95.6966 27.6775 94.8022 27.6775C94.8022 23.6522 94.8022 19.7234 94.8022 15.7051C95.6747 15.7051 96.5684 15.7051 97.5348 15.7051C97.6326 16.2571 97.7388 16.8564 97.8752 17.6261C99.0272 16.0856 100.415 15.288 102.245 15.3085C102.245 16.4479 102.245 17.5234 102.245 18.6661C101.776 18.6661 101.355 18.6454 100.937 18.6697C99.0502 18.7796 98.0185 19.7627 97.9456 21.6614C97.8782 23.4185 97.9293 25.1802 97.9279 27.0344Z" fill="white"/>
<path d="M125.915 27.6778C125.259 27.6778 124.701 27.6778 124.087 27.6778C124.087 23.6445 124.087 19.687 124.087 15.6724C125.088 15.6724 126.093 15.6724 127.153 15.6724C127.153 19.6528 127.153 23.6102 127.153 27.6778C126.77 27.6778 126.392 27.6778 125.915 27.6778Z" fill="white"/>
<path d="M40.9712 20.8014C40.9712 19.047 40.9712 17.3983 40.9712 15.6829C42.0311 15.6829 43.032 15.6829 44.0726 15.6829C44.0726 19.6696 44.0726 23.626 44.0726 27.6303C43.0594 27.6303 42.0876 27.6303 40.9712 27.6303C40.9712 25.3715 40.9712 23.1393 40.9712 20.8014Z" fill="white"/>
<path d="M124.346 13.4049C124.127 12.3345 124.005 11.2658 123.873 10.1177C125.049 10.1177 126.045 10.1177 127.108 10.1177C127.108 11.1719 127.108 12.2119 127.108 13.4067C126.239 13.4067 125.34 13.4067 124.346 13.4049Z" fill="white"/>
<path d="M42.4251 10.0535C43.011 10.0535 43.4957 10.0535 44.0474 10.0535C44.0474 11.1702 44.0474 12.2327 44.0474 13.3519C43.0612 13.3519 42.0632 13.3519 41.001 13.3519C41.001 12.3033 41.001 11.2396 41.001 10.0535C41.4404 10.0535 41.8822 10.0535 42.4251 10.0535Z" fill="white"/>
<path d="M19.0389 4.82458C19.2186 5.83514 19.3085 6.82045 19.4077 7.90915C18.2661 7.90915 17.2808 7.90915 16.2522 7.90915C16.2522 6.90689 16.2522 5.937 16.2522 4.79932C17.1634 4.79932 18.0562 4.79932 19.0389 4.82458Z" fill="white"/>
<path d="M16.7346 35.4496C17.5598 35.449 18.291 35.449 19.1008 35.449C19.1008 36.5086 19.1008 37.5022 19.1008 38.5583C18.1641 38.5583 17.2046 38.5583 16.1401 38.5583C16.1401 37.675 16.1131 36.8079 16.1628 35.9453C16.1728 35.7717 16.4738 35.6148 16.7346 35.4496Z" fill="white"/>
<path d="M32.3306 20.2522C33.1236 20.2523 33.8196 20.2523 34.5576 20.2523C34.5576 21.2983 34.5576 22.2356 34.5576 23.2427C33.572 23.2427 32.6028 23.2427 31.4549 23.2427C31.4549 22.4113 31.4138 21.5467 31.4901 20.6925C31.5051 20.5249 31.9741 20.3979 32.3306 20.2522Z" fill="white"/>
<path d="M4.3584 12.1972C5.11296 12.643 5.80484 13.0504 6.55479 13.492C6.04564 14.3742 5.57676 15.1866 5.06103 16.0803C4.15798 15.5658 3.31323 15.0847 2.35156 14.5369C2.81337 13.7376 3.2281 12.9775 3.69697 12.2525C3.77002 12.1395 4.08994 12.186 4.3584 12.1972Z" fill="white"/>
<path d="M5.56028 28.2459C5.87639 28.7947 6.15222 29.2782 6.47455 29.8433C5.60081 30.3531 4.74066 30.8549 3.82107 31.3915C3.31682 30.5229 2.84885 29.7168 2.32886 28.8211C3.21425 28.3061 4.04447 27.8232 4.95603 27.293C5.15937 27.613 5.33968 27.8967 5.56028 28.2459Z" fill="white"/>
<path d="M30.4399 30.8765C29.8946 30.5519 29.4147 30.2717 28.8628 29.9496C29.3647 29.0755 29.8442 28.2405 30.3622 27.3386C31.2722 27.8668 32.1054 28.3504 33.0615 28.9053C32.5607 29.7757 32.0857 30.601 31.5802 31.4794C31.1717 31.2671 30.8384 31.094 30.4399 30.8765Z" fill="white"/>
<path d="M9.92994 6.72192C10.3509 6.42524 10.6514 6.31448 10.9145 6.8304C11.279 7.54491 11.7009 8.23014 12.146 9.0119C11.2754 9.51406 10.4656 9.98115 9.57338 10.4958C9.05837 9.60769 8.57162 8.76834 8.0271 7.82939C8.6707 7.45657 9.26782 7.11067 9.92994 6.72192Z" fill="white"/>
<path d="M9.80404 36.6623C9.16756 36.2932 8.59854 35.9563 7.92578 35.5579C8.42987 34.6765 8.91985 33.8197 9.46671 32.8635C10.3641 33.3778 11.192 33.8523 12.0795 34.3609C11.635 35.1405 11.2123 35.8171 10.8562 36.527C10.5772 37.0833 10.2586 36.9881 9.80404 36.6623Z" fill="white"/>
<path d="M23.7089 8.41677C24.1154 7.72019 24.4807 7.08824 24.8928 6.37549C25.7669 6.87305 26.575 7.333 27.4917 7.85481C26.992 8.74612 26.5218 9.58457 25.9701 10.5685C25.1745 10.1158 24.4121 9.71937 23.703 9.24348C23.5773 9.1591 23.6738 8.74387 23.7089 8.41677Z" fill="white"/>
<path d="M32.5162 13.5601C32.7191 13.9327 32.8887 14.237 33.1086 14.6317C32.2257 15.1436 31.3617 15.6446 30.4332 16.183C29.9244 15.3222 29.4488 14.5175 28.9038 13.5956C29.7944 13.0742 30.6479 12.5745 31.5993 12.0176C31.9192 12.5512 32.201 13.0215 32.5162 13.5601Z" fill="white"/>
<path d="M27.1962 35.677C26.3969 36.1631 25.6415 36.5942 24.8185 37.064C24.3093 36.1799 23.8284 35.3449 23.3081 34.4415C24.1582 33.9448 24.9359 33.4905 25.8717 32.9438C26.3451 33.8704 26.7926 34.7462 27.1962 35.677Z" fill="white"/>
<path d="M3.85243 23.0545C2.83806 23.1317 1.8904 23.1317 0.797119 23.1317C0.797119 22.6234 0.797119 22.1443 0.797119 21.6652C0.797119 21.2124 0.797119 20.7596 0.797119 20.2363C1.85778 20.2363 2.85256 20.2363 3.91914 20.2363C3.91914 21.1653 3.91914 22.0714 3.85243 23.0545Z" fill="white"/>
</g>
<defs>
<clipPath id="clip0_305_16072">
<rect width="147" height="43.5556" fill="white"/>
</clipPath>
</defs>
</svg>
