<svg width="189" height="107" viewBox="0 0 189 107" fill="none" xmlns="http://www.w3.org/2000/svg">
<g id="Frame 28">
<g id="Group 34366">
<path id="Vector" d="M49.5568 5.13288L36.2617 61.1042L124.807 81.9998L138.103 26.0284L49.5568 5.13288Z" fill="#EBEBEB"/>
<path id="Vector_2" d="M138.08 26.0021C133.658 28.5695 129.236 30.9716 124.881 33.4839C120.525 35.9962 116.037 38.3323 111.615 40.7123C106.994 43.2026 102.373 45.6598 97.7518 48.084L97.3207 48.3374L85.0275 54.7945L84.4306 55.081L84.0326 54.5521C81.3204 50.8204 78.6267 47.0739 75.9514 43.3128C75.8519 43.1916 75.7524 43.0594 75.664 42.9272C72.6128 38.6738 69.5727 34.4205 66.5657 30.1121C63.6914 26.0241 60.8282 21.881 57.976 17.7379C55.1238 13.5948 52.3048 9.4076 49.541 5.1543C52.6475 8.97786 55.6544 12.9226 58.7056 16.8123C61.7568 20.702 64.7637 24.6688 67.7486 28.6576C71.0725 33.0652 74.389 37.5168 77.6981 42.0126L85.127 52.0949C88.8305 50.1886 92.567 48.2603 96.2815 46.3981C101.242 43.8784 106.213 41.3808 111.195 38.9052C115.617 36.7015 120.079 34.5234 124.582 32.371C129.126 30.2113 133.592 28.0296 138.08 26.0021Z" fill="white"/>
<path id="Vector_3" d="M77.532 43.2798L77.3993 43.3459L75.73 44.1944C73.0658 45.5387 70.3684 46.7948 67.6378 47.9849C64.3213 49.4614 60.9385 50.8388 57.5556 52.1941C54.1728 53.5494 50.7679 54.8056 47.3187 56.0067C43.8696 57.2077 40.4204 58.3647 36.8828 59.3123C40.133 57.5934 43.4384 56.0728 46.766 54.5962C50.0935 53.1197 53.4764 51.7423 56.8481 50.387C60.2199 49.0317 63.6469 47.7645 67.0961 46.5634C69.8377 45.5938 72.6236 44.6682 75.4205 43.8528L77.3772 43.2908L77.532 43.2798Z" fill="white"/>
<path id="Vector_4" d="M125.004 80.1379C122.285 77.6917 119.698 75.1133 117.177 72.5018C114.657 69.8903 112.18 67.2127 109.737 64.5131C107.294 61.8135 104.917 59.0587 102.618 56.2489C100.727 53.968 98.8703 51.654 97.0904 49.2629C96.6998 48.7561 96.3313 48.2492 95.9849 47.7423C95.9582 47.7 95.9287 47.6594 95.8965 47.6211C95.9319 47.66 95.9728 47.6934 96.0181 47.7203L97.5105 49.1087C99.6552 51.0921 101.7 53.1636 103.734 55.2462C106.277 57.8577 108.72 60.5463 111.163 63.2459C113.607 65.9456 115.972 68.7003 118.283 71.5101C120.593 74.3199 122.882 77.1518 125.004 80.1379Z" fill="white"/>
</g>
<g id="freepik--paper-plane--inject-49">
<path id="Vector_5" d="M16.7248 54.6492L16.4102 54.3235L17.2936 53.4912L17.6022 53.8229L16.7248 54.6492Z" fill="#263238"/>
<path id="Vector_6" d="M20.6998 102.453C19.8769 102.453 19.054 102.386 18.2795 102.302L18.3279 101.855C19.1145 101.934 19.9193 101.982 20.7482 102L20.6998 102.453ZM23.7252 102.404V101.952C24.5118 101.904 25.3226 101.837 26.1456 101.741L26.2 102.193C25.3771 102.284 24.5602 102.368 23.7615 102.404H23.7252ZM15.2541 101.843C14.4433 101.674 13.6446 101.463 12.8822 101.24L13.0213 100.812C13.7656 101.041 14.5461 101.246 15.3449 101.415L15.2541 101.843ZM29.2133 101.735L29.1347 101.288C29.9092 101.144 30.7079 100.981 31.4945 100.794L31.6034 101.234C30.7986 101.421 29.9939 101.59 29.2073 101.765L29.2133 101.735ZM34.5441 100.456L34.417 100.022C35.1855 99.7988 35.96 99.5515 36.7224 99.2921L36.8676 99.7204C36.0931 99.9556 35.3125 100.227 34.538 100.456H34.5441ZM10.0262 100.124C9.2871 99.7758 8.56978 99.3831 7.87816 98.9484L8.12019 98.5684C8.79574 98.9931 9.49694 99.3758 10.2198 99.7143L10.0262 100.124ZM39.7296 98.683L39.5663 98.2608C40.3045 97.9713 41.0608 97.6577 41.8051 97.3441L41.9805 97.7602C41.2302 98.0799 40.4678 98.3935 39.7236 98.683H39.7296ZM5.43363 97.0968C4.82759 96.5463 4.26143 95.9538 3.7394 95.3236L4.09035 95.0341C4.59821 95.6502 5.15029 96.2287 5.74222 96.7651L5.43363 97.0968ZM44.7639 96.4937L44.5703 96.0896C45.2843 95.7458 46.0104 95.3839 46.7365 95.01L46.9422 95.4141C46.1979 95.794 45.4658 96.1559 44.7458 96.4997L44.7639 96.4937ZM49.6046 93.9726L49.3807 93.5806C50.0866 93.1785 50.7825 92.7764 51.4682 92.3743L51.7042 92.7603C51.0144 93.1765 50.3125 93.5806 49.6046 93.9786V93.9726ZM2.02702 92.7663C1.63835 92.0465 1.30461 91.2985 1.02864 90.5288L1.45824 90.378C1.72888 91.1256 2.05241 91.8532 2.42638 92.5553L2.02702 92.7663ZM54.2818 91.15L54.0337 90.77C54.7155 90.3317 55.3871 89.8854 56.0487 89.4311L56.3028 89.805C55.6372 90.2694 54.9656 90.7157 54.2818 91.156V91.15ZM58.7776 88.0499L58.5114 87.6881C59.1648 87.2056 59.8062 86.7231 60.4416 86.2285L60.7199 86.5843C60.0785 87.0849 59.425 87.5735 58.7776 88.056V88.0499ZM0.254133 87.5674C0.117221 86.7696 0.0323325 85.9637 0 85.1549H0.447759C0.482611 85.9515 0.567487 86.7452 0.701892 87.5312L0.254133 87.5674ZM63.0918 84.6966L62.8014 84.3467C63.4065 83.8341 64.0478 83.3154 64.659 82.7907L64.9555 83.1345C64.3383 83.6712 63.7211 84.1899 63.0918 84.7026V84.6966ZM0.53247 82.1273L0.0786589 82.085C0.157319 81.2949 0.272287 80.4868 0.435659 79.6725L0.877366 79.757C0.732146 80.5652 0.60508 81.3613 0.53247 82.1333V82.1273ZM67.2366 81.1321L66.9341 80.8004C67.5392 80.2576 68.1442 79.7148 68.713 79.1659L69.0216 79.4976C68.4286 80.0525 67.8357 80.6014 67.2366 81.1381V81.1321ZM71.2181 77.4169L70.9034 77.0912L72.6339 75.4024L72.9546 75.7221L71.2181 77.4169ZM1.63372 76.8439L1.19806 76.7112C1.43404 75.9573 1.70028 75.1853 2.00282 74.4133L2.42032 74.5762C2.10568 75.3421 1.83944 76.1081 1.60951 76.8499L1.63372 76.8439ZM75.1208 73.575L74.7941 73.2613C75.3629 72.6884 75.9256 72.1094 76.4883 71.5304L76.8151 71.844L75.1208 73.575ZM3.62444 71.8199L3.21903 71.6208C3.56393 70.9092 3.93908 70.1794 4.33844 69.4617L4.73778 69.6788C4.31423 70.4025 3.94513 71.1203 3.60024 71.8259L3.62444 71.8199ZM78.9207 69.6667L78.594 69.3531L80.2701 67.604L80.5968 67.9177L78.9207 69.6667ZM6.311 67.0914L5.92979 66.8501C6.35335 66.1807 6.81321 65.5052 7.28518 64.8297L7.65428 65.0951C7.13391 65.7645 6.6801 66.434 6.25654 67.0974L6.311 67.0914ZM82.7206 65.7223L82.3879 65.4147L84.0639 63.6596L84.3907 63.9733L82.7206 65.7223ZM9.45742 62.6705L9.10042 62.3931C9.58449 61.79 10.0988 61.1386 10.6313 60.5053L10.9762 60.7948C10.4134 61.4281 9.88098 62.0614 9.40296 62.6765L9.45742 62.6705ZM86.4903 61.79L86.1636 61.4763C86.7202 60.8973 87.283 60.3183 87.8517 59.7393L88.1785 60.053C87.5653 60.636 86.9845 61.217 86.4359 61.796L86.4903 61.79ZM12.9729 58.5271L12.6401 58.2255C13.1787 57.6224 13.7353 57.0494 14.3102 56.4583L14.6309 56.772C14.0076 57.363 13.4389 57.9541 12.9185 58.5331L12.9729 58.5271ZM90.2963 57.9239L89.9756 57.6103C90.5443 57.0373 91.1131 56.4644 91.694 55.8914L92.0086 56.2171L90.2963 57.9239ZM94.1748 54.1001L93.8602 53.7744C94.435 53.2135 95.0219 52.6526 95.6089 52.0978L95.9235 52.4235C95.2761 52.9602 94.6952 53.5151 94.1204 54.076L94.1748 54.1001ZM98.1321 50.3608L97.8295 50.0291C98.4346 49.4862 99.0397 48.9434 99.6448 48.3946L99.9534 48.7323L98.1321 50.3608ZM102.198 46.742L101.896 46.3983C102.501 45.8735 103.106 45.3488 103.711 44.8241L104.007 45.1679C103.36 45.6745 102.749 46.1872 102.144 46.7119L102.198 46.742ZM106.367 43.2379L106.083 42.8881C106.688 42.3815 107.335 41.8748 107.977 41.3742L108.255 41.724L106.367 43.2379ZM110.651 39.8785L110.373 39.5166C111.014 39.0341 111.662 38.5456 112.321 38.0631L112.587 38.431C111.88 38.8833 111.232 39.3658 110.597 39.8483L110.651 39.8785ZM115.044 36.6638L114.784 36.2899C115.437 35.8315 116.103 35.3671 116.775 34.9088L117.029 35.2767C116.303 35.7109 115.643 36.1693 114.99 36.6277L115.044 36.6638ZM119.546 33.594L119.298 33.22C119.963 32.7797 120.647 32.3395 121.337 31.8992L121.579 32.2791C120.835 32.6893 120.157 33.1235 119.491 33.5638L119.546 33.594ZM124.151 30.6809L123.909 30.2949C124.592 29.8787 125.288 29.4626 125.99 29.0464L126.22 29.4384C125.47 29.8184 124.774 30.2346 124.096 30.6507L124.151 30.6809ZM128.84 27.9186L128.616 27.5265C129.318 27.1285 130.02 26.7364 130.74 26.3203L130.958 26.7123C130.22 27.0983 129.481 27.4964 128.785 27.8884L128.84 27.9186ZM133.626 25.307L133.408 24.9029C134.122 24.529 134.836 24.1551 135.568 23.7872L135.774 24.1913C134.994 24.529 134.274 24.9029 133.572 25.2769L133.626 25.307ZM138.467 22.8342L138.267 22.4301C138.987 22.0743 139.713 21.7245 140.451 21.3747L140.651 21.7788C139.901 22.0984 139.144 22.4543 138.424 22.8041L138.467 22.8342ZM143.392 20.5001L143.205 20.09L145.419 19.0949L145.607 19.505L143.392 20.5001ZM148.384 18.2988L148.203 17.8826C148.947 17.569 149.691 17.2795 150.447 16.9478L150.617 17.3639L148.384 18.2988Z" fill="#263238"/>
<path id="Vector_7" d="M153.535 16.1213L153.365 15.6991L154.491 15.2588L154.66 15.6749L153.535 16.1213Z" fill="#263238"/>
<path id="Vector_8" d="M152.093 8.58229L148.094 19.529L156.492 12.9972L188.586 1.39307L152.093 8.58229Z" fill="#FFC727"/>
<path id="Vector_9" opacity="0.1" d="M152.093 8.58229L148.094 19.529L156.492 12.9972L188.586 1.39307L152.093 8.58229Z" fill="black"/>
<path id="Vector_10" d="M157.563 15.5488L148.094 19.5294L156.492 12.9976L157.563 15.5488Z" fill="#263238"/>
<path id="Vector_11" d="M156.492 12.9972L188.586 1.39307L162.259 27.0017L156.492 12.9972Z" fill="#FFC727"/>
<path id="Vector_12" d="M152.094 8.58244L138.758 0L188.586 1.39321L152.094 8.58244Z" fill="#FFC727"/>
</g>
</g>
</svg>
